<mxfile host="app.diagrams.net" agent="Mozilla/5.0 (Macintosh; Intel Mac OS X 10_15_7) AppleWebKit/537.36 (KHTML, like Gecko) Chrome/129.0.0.0 Safari/537.36" version="24.7.17">
  <diagram name="Page-1" id="fe7XKm-T3SdhIIFN7xKr">
    <mxGraphModel dx="1062" dy="559" grid="1" gridSize="10" guides="1" tooltips="1" connect="1" arrows="1" fold="1" page="1" pageScale="1" pageWidth="850" pageHeight="1100" math="0" shadow="0">
      <root>
        <mxCell id="0" />
        <mxCell id="1" parent="0" />
        <mxCell id="HUMPWqH5aUB_DNh9UotB-1" value="Card" style="swimlane;fontStyle=1;align=center;verticalAlign=top;childLayout=stackLayout;horizontal=1;startSize=26;horizontalStack=0;resizeParent=1;resizeParentMax=0;resizeLast=0;collapsible=1;marginBottom=0;whiteSpace=wrap;html=1;" vertex="1" parent="1">
          <mxGeometry x="290" y="270" width="160" height="150" as="geometry" />
        </mxCell>
        <mxCell id="HUMPWqH5aUB_DNh9UotB-2" value="+ name:str&lt;div&gt;+ description:str&lt;/div&gt;&lt;div&gt;+cost:int&lt;/div&gt;" style="text;strokeColor=none;fillColor=none;align=left;verticalAlign=top;spacingLeft=4;spacingRight=4;overflow=hidden;rotatable=0;points=[[0,0.5],[1,0.5]];portConstraint=eastwest;whiteSpace=wrap;html=1;" vertex="1" parent="HUMPWqH5aUB_DNh9UotB-1">
          <mxGeometry y="26" width="160" height="44" as="geometry" />
        </mxCell>
        <mxCell id="HUMPWqH5aUB_DNh9UotB-3" value="" style="line;strokeWidth=1;fillColor=none;align=left;verticalAlign=middle;spacingTop=-1;spacingLeft=3;spacingRight=3;rotatable=0;labelPosition=right;points=[];portConstraint=eastwest;strokeColor=inherit;" vertex="1" parent="HUMPWqH5aUB_DNh9UotB-1">
          <mxGeometry y="70" width="160" height="8" as="geometry" />
        </mxCell>
        <mxCell id="HUMPWqH5aUB_DNh9UotB-4" value="&lt;span class=&quot;hljs-operator&quot;&gt;+&lt;/span&gt; __init__(name,&amp;nbsp;&lt;br&gt;&amp;nbsp;description, cost)&lt;br&gt;&lt;span class=&quot;hljs-operator&quot;&gt;+&lt;/span&gt; use_card(player,&amp;nbsp;&lt;br&gt;&amp;nbsp;opponent)" style="text;strokeColor=none;fillColor=none;align=left;verticalAlign=top;spacingLeft=4;spacingRight=4;overflow=hidden;rotatable=0;points=[[0,0.5],[1,0.5]];portConstraint=eastwest;whiteSpace=wrap;html=1;" vertex="1" parent="HUMPWqH5aUB_DNh9UotB-1">
          <mxGeometry y="78" width="160" height="72" as="geometry" />
        </mxCell>
        <mxCell id="HUMPWqH5aUB_DNh9UotB-5" value="SpellCard" style="swimlane;fontStyle=1;align=center;verticalAlign=top;childLayout=stackLayout;horizontal=1;startSize=26;horizontalStack=0;resizeParent=1;resizeParentMax=0;resizeLast=0;collapsible=1;marginBottom=0;whiteSpace=wrap;html=1;" vertex="1" parent="1">
          <mxGeometry x="130" y="120" width="160" height="86" as="geometry" />
        </mxCell>
        <mxCell id="HUMPWqH5aUB_DNh9UotB-6" value="+ field: type" style="text;strokeColor=none;fillColor=none;align=left;verticalAlign=top;spacingLeft=4;spacingRight=4;overflow=hidden;rotatable=0;points=[[0,0.5],[1,0.5]];portConstraint=eastwest;whiteSpace=wrap;html=1;" vertex="1" parent="HUMPWqH5aUB_DNh9UotB-5">
          <mxGeometry y="26" width="160" height="26" as="geometry" />
        </mxCell>
        <mxCell id="HUMPWqH5aUB_DNh9UotB-7" value="" style="line;strokeWidth=1;fillColor=none;align=left;verticalAlign=middle;spacingTop=-1;spacingLeft=3;spacingRight=3;rotatable=0;labelPosition=right;points=[];portConstraint=eastwest;strokeColor=inherit;" vertex="1" parent="HUMPWqH5aUB_DNh9UotB-5">
          <mxGeometry y="52" width="160" height="8" as="geometry" />
        </mxCell>
        <mxCell id="HUMPWqH5aUB_DNh9UotB-8" value="+ method(type): type" style="text;strokeColor=none;fillColor=none;align=left;verticalAlign=top;spacingLeft=4;spacingRight=4;overflow=hidden;rotatable=0;points=[[0,0.5],[1,0.5]];portConstraint=eastwest;whiteSpace=wrap;html=1;" vertex="1" parent="HUMPWqH5aUB_DNh9UotB-5">
          <mxGeometry y="60" width="160" height="26" as="geometry" />
        </mxCell>
      </root>
    </mxGraphModel>
  </diagram>
</mxfile>
